<svg xmlns="http://www.w3.org/2000/svg" width="1em" height="1em" viewBox="0 0 12.582 12.582" fill='currentColor'>
  <path d="M11.387,9.076h0l-2.7-2.7,2.7-2.7h0a.279.279,0,0,0,0-.393L10.111,2.009a.279.279,0,0,0-.393,0h0l-2.7,2.7-2.7-2.7h0a.279.279,0,0,0-.393,0L2.652,3.284a.279.279,0,0,0,0,.393h0l2.7,2.7-2.7,2.7h0a.279.279,0,0,0,0,.393l1.275,1.275a.279.279,0,0,0,.393,0h0l2.7-2.7,2.7,2.7h0a.279.279,0,0,0,.393,0l1.275-1.275a.279.279,0,0,0,0-.393Z" transform="translate(5.837 -3.181) rotate(45)" />
</svg>