<svg xmlns="http://www.w3.org/2000/svg" width="1em" height="1em" viewBox="0 0 17 11.899" fill='currentColor'>
  <path d="M16.218,10.471a3.116,3.116,0,0,0,0-1.132l.685-.4a.192.192,0,0,0,.088-.226,3.987,3.987,0,0,0-.882-1.525.194.194,0,0,0-.239-.037l-.685.4a3.119,3.119,0,0,0-.98-.566V6.194a.193.193,0,0,0-.151-.189,4.008,4.008,0,0,0-1.759,0,.193.193,0,0,0-.151.189v.792a3.119,3.119,0,0,0-.98.566l-.685-.4a.194.194,0,0,0-.239.037,3.987,3.987,0,0,0-.882,1.525.2.2,0,0,0,.088.226l.685.4a3.116,3.116,0,0,0,0,1.132l-.685.4a.192.192,0,0,0-.088.226,4.006,4.006,0,0,0,.882,1.525.194.194,0,0,0,.239.037l.685-.4a3.119,3.119,0,0,0,.98.566v.792a.193.193,0,0,0,.151.189,4.008,4.008,0,0,0,1.759,0,.193.193,0,0,0,.151-.189v-.792a3.119,3.119,0,0,0,.98-.566l.685.4a.194.194,0,0,0,.239-.037,3.987,3.987,0,0,0,.882-1.525.2.2,0,0,0-.088-.226Zm-3.042.723a1.288,1.288,0,1,1,1.288-1.288A1.29,1.29,0,0,1,13.176,11.194ZM2.55,7.355a1.7,1.7,0,1,0-1.7-1.7A1.7,1.7,0,0,0,2.55,7.355Zm5.951.85c.05,0,.1-.013.149-.016a4.9,4.9,0,0,1,.964-1.573,1.047,1.047,0,0,1,.768-.335,1.021,1.021,0,0,1,.521.141l.21.122.064-.037a2.94,2.94,0,0,0,.3-1.275A2.974,2.974,0,1,0,8.5,8.205ZM11.3,13.372c-.061-.032-.122-.069-.181-.1a1.312,1.312,0,0,1-.731.26,1.056,1.056,0,0,1-.768-.335,4.844,4.844,0,0,1-1.068-1.849,1.134,1.134,0,0,1,.685-1.336q0-.1,0-.207l-.21-.122a1.082,1.082,0,0,1-.26-.215c-.088.005-.173.016-.26.016a4.194,4.194,0,0,1-1.82-.425h-.22A3.062,3.062,0,0,0,3.4,12.115v.765a1.275,1.275,0,0,0,1.275,1.275H11.46a1.023,1.023,0,0,1-.165-.539v-.244ZM4.6,8.7a1.7,1.7,0,0,0-1.2-.494H1.7A1.7,1.7,0,0,0,0,9.905v.85a.849.849,0,0,0,.85.85H2.6A3.9,3.9,0,0,1,4.6,8.7Z" transform="translate(0 -2.257)" />
</svg>