<svg xmlns="http://www.w3.org/2000/svg" width="15.833" height="15.827" viewBox="0 0 15.833 15.827"><path d="M4.777,8.642l6.974,3.367a1.735,1.735,0,0,0,1.327,0l6.974-3.367c.367-.177.367-.466,0-.643L13.078,4.632a1.735,1.735,0,0,0-1.327,0L4.777,8C4.41,8.176,4.41,8.465,4.777,8.642Z" transform="translate(-4.494 -4.5)"/><path d="M20.045,16.918l-1.443-.7a.341.341,0,0,0-.392,0c-.177.082-5.144,2.481-5.144,2.481a1.735,1.735,0,0,1-1.327,0s-4.835-2.333-5.061-2.444a.472.472,0,0,0-.54-.012l-1.377.664c-.367.177-.367.466,0,.643l6.974,3.367a1.735,1.735,0,0,0,1.327,0l6.974-3.367C20.412,17.383,20.412,17.095,20.045,16.918Z" transform="translate(-4.488 -9.326)"/><path d="M20.048,23.9l-1.443-.7a.341.341,0,0,0-.392,0c-.177.082-5.14,2.485-5.14,2.485a1.735,1.735,0,0,1-1.327,0S6.913,23.36,6.686,23.248a.472.472,0,0,0-.54-.012L4.77,23.9c-.367.177-.367.466,0,.643l6.974,3.367a1.539,1.539,0,0,0,.664.132,1.6,1.6,0,0,0,.664-.132l6.974-3.367C20.415,24.365,20.415,24.077,20.048,23.9Z" transform="translate(-4.491 -12.215)"/></svg>