<svg xmlns="http://www.w3.org/2000/svg" width="1em" height="1em" viewBox="0 0 13.888 13.888" fill='currentColor'>
  <path d="M16.332,13.085h0L12.119,8.872l4.213-4.213h0a.435.435,0,0,0,0-.614l-1.99-1.99a.435.435,0,0,0-.614,0h0L9.515,6.268,5.3,2.055h0a.435.435,0,0,0-.614,0L2.7,4.045a.435.435,0,0,0,0,.614h0L6.911,8.872,2.7,13.085h0a.435.435,0,0,0,0,.614l1.99,1.99a.435.435,0,0,0,.614,0h0l4.213-4.213,4.213,4.213h0a.435.435,0,0,0,.614,0l1.99-1.99a.435.435,0,0,0,0-.614Z" transform="translate(-2.571 -1.928)" />
</svg>