<svg xmlns="http://www.w3.org/2000/svg" width="12.995" height="12.995" viewBox="0 0 12.995 12.995">
  <defs>
    <style>.a{fill:none;stroke:#000;stroke-linecap:round;stroke-linejoin:round;stroke-width:1.5px;}</style>
  </defs>
  <g transform="translate(0.75 0.75)">
    <path class="a" d="M14.649,13.5h5.173a1.149,1.149,0,0,1,1.149,1.149v5.173a1.149,1.149,0,0,1-1.149,1.149H14.649A1.149,1.149,0,0,1,13.5,19.822V14.649A1.149,1.149,0,0,1,14.649,13.5Z" transform="translate(-9.477 -9.477)" />
    <path class="a" d="M4.724,10.472H4.149A1.149,1.149,0,0,1,3,9.322V4.149A1.149,1.149,0,0,1,4.149,3H9.322a1.149,1.149,0,0,1,1.149,1.149v.575" transform="translate(-3 -3)" />
  </g>
</svg>