<svg xmlns="http://www.w3.org/2000/svg" width="1em" height="1em" viewBox="0 0 16.962 13.57" fill='currentColor'>
  <path d="M8.481,10.6A3.8,3.8,0,0,1,4.694,7.073L1.914,4.925A8.833,8.833,0,0,0,.94,6.4a.857.857,0,0,0,0,.774,8.5,8.5,0,0,0,7.541,4.7,8.232,8.232,0,0,0,2.064-.277L9.17,10.532A3.82,3.82,0,0,1,8.481,10.6Zm8.317,1.54-2.93-2.264a8.779,8.779,0,0,0,2.153-2.705.857.857,0,0,0,0-.774A8.5,8.5,0,0,0,8.481,1.7a8.167,8.167,0,0,0-3.9,1L1.2.089a.424.424,0,0,0-.6.074l-.52.67a.424.424,0,0,0,.074.595L15.757,13.48a.424.424,0,0,0,.6-.074l.521-.67A.424.424,0,0,0,16.8,12.141ZM11.929,8.378l-1.042-.805A2.511,2.511,0,0,0,7.81,4.341a1.263,1.263,0,0,1,.247.748,1.236,1.236,0,0,1-.041.265L6.065,3.846a3.772,3.772,0,0,1,2.416-.878A3.814,3.814,0,0,1,12.3,6.785a3.726,3.726,0,0,1-.368,1.593Z" transform="translate(0 0)" />
</svg>