<svg xmlns="http://www.w3.org/2000/svg" width="1em" height="1em" viewBox="0 0 15.643 10.429" fill='currentColor'>
  <path d="M15.549,9.318A8.711,8.711,0,0,0,7.822,4.5,8.712,8.712,0,0,0,.095,9.318a.879.879,0,0,0,0,.793,8.711,8.711,0,0,0,7.727,4.818,8.712,8.712,0,0,0,7.727-4.818A.879.879,0,0,0,15.549,9.318ZM7.822,13.625a3.911,3.911,0,1,1,3.911-3.911A3.911,3.911,0,0,1,7.822,13.625Zm0-6.518a2.589,2.589,0,0,0-.687.1A1.3,1.3,0,0,1,5.317,9.027a2.6,2.6,0,1,0,2.5-1.92Z" transform="translate(0 -4.5)" />
</svg>