<svg xmlns="http://www.w3.org/2000/svg" xmlns:xlink="http://www.w3.org/1999/xlink" width="140.575" height="29.85" viewBox="0 0 140.575 29.85">
  <defs>
    <style>.f{fill:#fefefe;}.b{fill:url(#f);}.c{fill:url(#b);}.d{fill:#151515;}</style>
    <linearGradient id="f" x1="0.037" y1="0.206" x2="0.929" y2="0.821" gradientUnits="objectBoundingBox">
      <stop offset="0" stop-color="#ff9715" />
      <stop offset="1" stop-color="#ff7800" />
    </linearGradient>
    <linearGradient id="b" x1="-0.043" y1="0.181" x2="1.122" y2="0.895" gradientUnits="objectBoundingBox">
      <stop offset="0" stop-color="#ff5c15" />
      <stop offset="1" stop-color="#ff2300" />
    </linearGradient>
  </defs>
  <path class="f" d="M178.24,375.994q0-7.368,0-14.736c0-.148.024-.189.209-.189q14.654.008,29.309,0c.2,0,.222.045.222.2q-.007,14.725,0,29.45c0,.155-.025.2-.222.2q-14.641-.008-29.283,0c-.2,0-.235-.047-.235-.211Q178.243,383.351,178.24,375.994Zm11.969-3.664a.347.347,0,0,1,.018.211,7.729,7.729,0,0,0,.493,3.471,27.627,27.627,0,0,0,1.586,3.288,18.341,18.341,0,0,1,1.428,3.169,5.4,5.4,0,0,1-.672,4.756c-.043.066-.127.128-.074.219a.369.369,0,0,0,.2-.045,24.97,24.97,0,0,0,4.026-2.189,9.887,9.887,0,0,0,2.972-2.951,6.018,6.018,0,0,0,.887-3.114,5.835,5.835,0,0,0-.151-1.225,9.029,9.029,0,0,0-.437-1.456,17.586,17.586,0,0,0-1.709-2.908c-.681-1.061-1.3-2.148-1.933-3.232-.286-.493-.5-1.02-.738-1.532a16.652,16.652,0,0,1-1.149-3.249,9.789,9.789,0,0,1-.219-2.854c0-.074.043-.16-.05-.236a35.223,35.223,0,0,0-2.54,2.544,25.34,25.34,0,0,0-2.345,2.972,12.082,12.082,0,0,0-2.147,5.31,7.939,7.939,0,0,0,.868,4.534,15.266,15.266,0,0,0,2.041,2.9,1.082,1.082,0,0,0,.443.38.832.832,0,0,0-.024-.17c-.123-.328-.254-.655-.376-.983a12.389,12.389,0,0,1-.983-4.189,6.764,6.764,0,0,1,.584-3.426Zm-.774,13.922a6.055,6.055,0,0,1-2.621-3.129,7.747,7.747,0,0,1-.189-3.923,8.946,8.946,0,0,0,1.594,1.637,4.271,4.271,0,0,0,2.121.912c-2.117-2.44-3.653-5.051-3.432-8.224a5.58,5.58,0,0,0-.618.884,12.474,12.474,0,0,0-2.037,5.3,5.34,5.34,0,0,0,1.1,4,8.536,8.536,0,0,0,3.677,2.5C189.132,386.255,189.231,386.376,189.434,386.252Z" transform="translate(-178.235 -361.069)" />
  <path class="b" d="M235.992,379.1a6.763,6.763,0,0,0-.584,3.426,12.388,12.388,0,0,0,.983,4.189c.122.329.253.655.376.983a.838.838,0,0,1,.024.17,1.081,1.081,0,0,1-.442-.38,15.265,15.265,0,0,1-2.041-2.9,7.939,7.939,0,0,1-.868-4.534,12.083,12.083,0,0,1,2.147-5.31,25.348,25.348,0,0,1,2.345-2.972,35.227,35.227,0,0,1,2.54-2.544c.093.076.055.162.05.236a9.792,9.792,0,0,0,.219,2.854,16.649,16.649,0,0,0,1.149,3.249c.242.512.452,1.039.738,1.532.629,1.084,1.252,2.17,1.933,3.232a17.587,17.587,0,0,1,1.709,2.908,9.025,9.025,0,0,1,.437,1.456,5.836,5.836,0,0,1,.151,1.225,6.017,6.017,0,0,1-.887,3.114A9.886,9.886,0,0,1,243,391.984a24.964,24.964,0,0,1-4.026,2.189.368.368,0,0,1-.2.045c-.052-.091.031-.153.074-.219a5.4,5.4,0,0,0,.672-4.757,18.339,18.339,0,0,0-1.428-3.169,27.627,27.627,0,0,1-1.586-3.288,7.729,7.729,0,0,1-.493-3.471A.347.347,0,0,0,235.992,379.1Z" transform="translate(-224.019 -367.841)" />
  <path class="c" d="M218.646,447.1c-.2.123-.3,0-.406-.039a8.537,8.537,0,0,1-3.677-2.5,5.34,5.34,0,0,1-1.1-4,12.474,12.474,0,0,1,2.037-5.3,5.582,5.582,0,0,1,.619-.885c-.221,3.173,1.315,5.785,3.432,8.224a4.271,4.271,0,0,1-2.121-.912,8.95,8.95,0,0,1-1.594-1.637,7.747,7.747,0,0,0,.189,3.923A6.055,6.055,0,0,0,218.646,447.1Z" transform="translate(-207.447 -421.92)" />
  <g transform="translate(28.398 9.047)">
    <path class="d" d="M350.909,425.887c-3.33,0-5.551-2.315-5.551-5.787s2.22-5.787,5.551-5.787a10.449,10.449,0,0,1,2.362.3v2.031a3.485,3.485,0,0,0-2.126-.677c-2.2,0-3.661,1.654-3.661,4.134s1.37,4.134,3.425,4.134a4.259,4.259,0,0,0,2.362-.677v2.031A10.448,10.448,0,0,1,350.909,425.887Z" transform="translate(-345.358 -414.313)" />
    <path class="d" d="M424.726,434.469h1.7l.945,1.323.237-1.323h1.652v5.858c0,.945.071,2.22.071,2.22l-1.724-.095-.093-1.723a3.24,3.24,0,0,1-2.788,1.889c-2.168,0-3.614-1.654-3.614-4.134C421.112,436.075,422.558,434.469,424.726,434.469Zm.378,6.732a2.6,2.6,0,0,0,2.268-2.835v-2.48H425.1c-1.219,0-2.031,1.039-2.031,2.6C423.073,440.114,423.885,441.2,425.1,441.2Z" transform="translate(-408.24 -431.044)" />
    <path class="d" d="M502.428,439.656a5.422,5.422,0,0,0,2.953,1.016c1.2,0,1.771-.326,1.771-.921,0-.533-.69-.852-1.653-1.111-1.39-.372-3.071-.838-3.071-2.692,0-1.413,1.281-2.173,3.661-2.173a9.1,9.1,0,0,1,2.244.26v1.89a4.044,4.044,0,0,0-2.362-.779c-1.151,0-1.771.265-1.771.756,0,.515.787.874,1.724,1.125,1.389.372,3,.812,3,2.537,0,1.612-1.323,2.48-3.779,2.48a8.684,8.684,0,0,1-2.716-.543Z" transform="translate(-475.738 -430.467)" />
    <path class="d" d="M575.247,434.469l.232,1.316.95-1.316h1.7c2.168,0,3.614,1.606,3.614,4.015,0,2.48-1.446,4.134-3.614,4.134a3.153,3.153,0,0,1-2.645-1.684v6.29h-1.89V434.469Zm.237,3.779c0,1.63,1.016,2.953,2.268,2.953,1.219,0,2.031-1.086,2.031-2.716,0-1.559-.812-2.6-2.031-2.6h-2.268Z" transform="translate(-534.811 -431.044)" />
    <path class="d" d="M654.413,440.624a3.814,3.814,0,0,0,2.244-.63v1.747a7.867,7.867,0,0,1-2.244.3,4.021,4.021,0,0,1-4.37-4.134,3.85,3.85,0,0,1,4.015-4.134,3.373,3.373,0,0,1,3.661,3.472v.543a.641.641,0,0,1-.709.709h-5.042A2.228,2.228,0,0,0,654.413,440.624Zm-1.535-3.425h3.189a1.857,1.857,0,0,0-2.008-2.126c-1.382,0-2.126.992-2.126,2.834q0,.165.01.32Z" transform="translate(-598.27 -430.467)" />
    <path class="d" d="M728.541,433.892l.1,1.811a3.551,3.551,0,0,1,3.018-1.929h.78v2.008h-1.3a2.239,2.239,0,0,0-2.48,2.244v3.9h-1.89v-8.031Z" transform="translate(-661.96 -430.467)" />
    <path class="d" d="M791.35,415.491h6.214v1.172h-4.69v3.869h3.752v1.173h-3.752v5.041H791.35Z" transform="translate(-715.565 -415.291)" />
    <path class="d" d="M841.93,422.318l-3.8-6.827h1.806L842.7,421.4l2.744-5.909h1.829l-3.822,6.827v4.429H841.93Z" transform="translate(-754.397 -415.291)" />
    <path class="d" d="M906.3,415.491h3.4c2.378,0,3.963,1.172,3.963,2.931a3.043,3.043,0,0,1-2.5,2.7,3.014,3.014,0,0,1,2.383,2.572l.375,3.048H912.4l-.352-3.048c-.151-1.313-1.1-1.993-2.673-1.993h-1.548v5.041H906.3Zm3.4,5.042c1.534,0,2.556-.844,2.556-2.11,0-1.055-1.023-1.759-2.556-1.759h-1.876v3.869Z" transform="translate(-810.985 -415.291)" />
    <path class="d" d="M967.572,415.491h6.449v1.172H969.1v3.752h3.987v1.172H969.1v3.986h4.924v1.172h-6.449Z" transform="translate(-861.843 -415.291)" />
  </g>
</svg>