<svg xmlns="http://www.w3.org/2000/svg" width="1em" height="1em" viewBox="0 0 14.169 12.277" fill='currentColor'>
  <path d="M26.719,4.528Z" transform="translate(-15.978 -4.044)" />
  <path d="M8.774,3.658a2.178,2.178,0,0,0-1.118-.283,3.638,3.638,0,0,0-1.378.272A7.422,7.422,0,0,0,3.883,5.193a7.03,7.03,0,0,0-.676.785c-.18.257.056.62-.18.856s-.729,0-.729,0a.156.156,0,0,0-.115.047l-1.006,1a.16.16,0,0,0,0,.23L3.051,9.974a.161.161,0,0,0,.115.047.156.156,0,0,0,.115-.047l.98-1.027a.16.16,0,0,0,0-.23S4.1,8.563,3.9,8.362s.024-.57.156-.691a.908.908,0,0,1,.623-.2,1.162,1.162,0,0,1,.336.053,4.512,4.512,0,0,1,1.5,1.2l-.115.192a.256.256,0,0,0,.038.307s-.148-.145.387.387L8.307,8.221c-.564-.558-.428-.416-.428-.416a.27.27,0,0,0-.186-.068.264.264,0,0,0-.124.03L7.4,7.855c-.826-.82-1.042-1.186-1.012-1.821a2.1,2.1,0,0,1,.9-1.555A2.434,2.434,0,0,1,9.08,4.03C9.317,4.027,8.956,3.776,8.774,3.658Z" transform="translate(-1.129 -3.375)" />
  <path d="M25.261,23.4s-2.033-1.688-3.842-3.415l-1.408,1.493c1.726,1.788,3.391,3.766,3.391,3.766a.161.161,0,0,0,.115.047.156.156,0,0,0,.115-.047l1.626-1.614A.163.163,0,0,0,25.261,23.4Z" transform="translate(-12.086 -13.012)" />
  <path d="M17.425,5.668,15.879,7.221l-1.508-.274L14.1,5.438l1.546-1.552a1.714,1.714,0,0,0-1.151-.49.376.376,0,0,0-.059,0,2.822,2.822,0,0,0-1.768.876,2.843,2.843,0,0,0-.661,3.078.467.467,0,0,1-.08.581l-.664.629-.342.325c-.236.224-.5.478-.791.744-.112.106-.227.212-.342.325-1.682,1.588-3.745,3.527-3.745,3.527a1.242,1.242,0,0,0,0,1.794,1.322,1.322,0,0,0,.924.378,1.13,1.13,0,0,0,.871-.387s1.933-2.06,3.521-3.745c.109-.118.218-.23.325-.345.274-.292.531-.564.761-.806.115-.124.224-.239.325-.342.339-.36.57-.6.62-.649a.457.457,0,0,1,.328-.151.568.568,0,0,1,.254.071,2.075,2.075,0,0,0,.956.215,3.174,3.174,0,0,0,2.128-.871,2.736,2.736,0,0,0,.874-1.771A1.619,1.619,0,0,0,17.425,5.668ZM7.338,14.546a.413.413,0,1,1,0-.584A.417.417,0,0,1,7.338,14.546Z" transform="translate(-3.757 -3.387)" />
</svg>