<svg xmlns="http://www.w3.org/2000/svg" width="15.717" height="15.716" viewBox="0 0 15.717 15.716"><path d="M17.2,12.019a4.914,4.914,0,0,0,.04-.786c0-.275-.04-.511-.04-.786l1.688-1.3a.361.361,0,0,0,.08-.511L17.362,5.929a.391.391,0,0,0-.482-.157l-2.009.786A5.849,5.849,0,0,0,13.5,5.772l-.281-2.082a.431.431,0,0,0-.4-.314H9.605a.431.431,0,0,0-.4.314L8.882,5.772a6.805,6.805,0,0,0-1.367.786L5.506,5.772a.376.376,0,0,0-.482.157L3.416,8.64a.475.475,0,0,0,.08.511l1.728,1.3c0,.275-.04.511-.04.786s.04.511.04.786l-1.688,1.3a.361.361,0,0,0-.08.511l1.607,2.711a.391.391,0,0,0,.482.157l2.009-.786a5.848,5.848,0,0,0,1.366.786l.321,2.082a.39.39,0,0,0,.4.314h3.215a.431.431,0,0,0,.4-.314l.322-2.082a6.8,6.8,0,0,0,1.366-.786l2.009.786a.376.376,0,0,0,.482-.157l1.607-2.711a.474.474,0,0,0-.08-.511Zm-5.988,1.965a2.751,2.751,0,1,1,2.813-2.75A2.765,2.765,0,0,1,11.213,13.984Z" transform="translate(-3.375 -3.375)"/></svg>