<svg xmlns="http://www.w3.org/2000/svg" width="14.666" height="13.537" viewBox="0 0 14.666 13.537">
  <path d="M8.829,14.276V8.262a1.5,1.5,0,0,1,1.505-1.505h6.945V6.005A1.5,1.5,0,0,0,15.788,4.5H4.926A1.524,1.524,0,0,0,3.375,5.981V16.557a1.524,1.524,0,0,0,1.551,1.481H15.784a1.5,1.5,0,0,0,1.491-1.505v-.751H10.331A1.5,1.5,0,0,1,8.829,14.276Z" transform="translate(-3.375 -4.5)" />
  <path d="M17.227,12.517v4.936a.566.566,0,0,0,.564.564h6.592a.566.566,0,0,0,.564-.564V12.517a.566.566,0,0,0-.564-.564H17.791A.566.566,0,0,0,17.227,12.517Zm2.718,3.592A1.129,1.129,0,1,1,21,15.055,1.129,1.129,0,0,1,19.945,16.11Z" transform="translate(-10.282 -8.216)" />
</svg>